<svg width="111" height="32" viewBox="0 0 111 32" fill="none" xmlns="http://www.w3.org/2000/svg">
<g clip-path="url(#clip0_973_6394)">
<path d="M28.8238 13.87L29.1343 24.49L24.9379 24.22L25.5789 15.79L22.4741 24.49L16.8154 27.64L23.0249 13.87H28.8238Z" fill="#002C5F"/>
<path d="M16.5852 28.01L29.0943 24.81L29.4549 31.7H24.6675L24.7577 28.46H20.9719L19.9203 31.7H14.8926L16.5852 28.01Z" fill="#002C5F"/>
<path d="M44.7185 17.37L41.794 31.74H36.6061L36.9366 30.55C36.4859 31.03 35.9751 31.4 35.4042 31.64C34.8334 31.88 34.2224 32 33.5514 32C32.7902 32 32.1793 31.89 31.7186 31.65C31.2679 31.42 30.9474 31.11 30.7872 30.73C30.6269 30.35 30.5568 29.95 30.5869 29.53C30.6169 29.11 30.7471 28.29 30.9975 27.06L32.9705 17.37H38.0683L36.0753 27.15C35.8449 28.27 35.7548 28.93 35.7948 29.14C35.8249 29.35 36.0252 29.45 36.3757 29.45C36.7563 29.45 37.0067 29.34 37.1169 29.13C37.2371 28.91 37.4073 28.22 37.6477 27.04L39.6207 17.37H44.7185Z" fill="#002C5F"/>
<path d="M52.6003 14.06L51.8392 17.71H53.2113L52.7506 19.98H51.3785L49.8161 27.67C49.6258 28.62 49.5757 29.14 49.6658 29.25C49.756 29.36 50.2167 29.41 51.048 29.41L50.5772 31.73H48.5241C47.3623 31.73 46.5411 31.69 46.0603 31.61C45.5796 31.53 45.179 31.33 44.8685 31.04C44.548 30.74 44.3878 30.4 44.3677 30.01C44.3577 29.63 44.4879 28.72 44.7784 27.29L46.2706 19.99H45.179L45.6397 17.72H46.7414L47.5426 14.07H52.6003V14.06Z" fill="#002C5F"/>
<path d="M64.9093 22.41L64.1882 25.93C63.9278 27.22 63.6574 28.17 63.387 28.77C63.1066 29.37 62.6759 29.94 62.075 30.46C61.4741 30.98 60.753 31.37 59.9317 31.62C59.1004 31.87 58.189 31.99 57.1775 31.99C56.0458 31.99 55.1143 31.88 54.3832 31.67C53.6421 31.46 53.1012 31.14 52.7607 30.71C52.4102 30.28 52.2099 29.76 52.1498 29.15C52.0897 28.54 52.1798 27.62 52.4302 26.4L53.1814 22.72C53.4518 21.38 53.8324 20.34 54.3231 19.59C54.8139 18.84 55.535 18.24 56.5065 17.78C57.4779 17.33 58.6397 17.1 60.0018 17.1C61.1436 17.1 62.095 17.25 62.8562 17.54C63.6173 17.83 64.1682 18.21 64.5187 18.68C64.8693 19.15 65.0696 19.63 65.1397 20.13C65.1998 20.63 65.1297 21.39 64.9193 22.4L64.9093 22.41ZM60.0419 21.33C60.1921 20.59 60.2422 20.13 60.1821 19.94C60.132 19.75 59.9517 19.65 59.6513 19.65C59.3508 19.65 59.1305 19.75 58.9903 19.94C58.85 20.13 58.7098 20.6 58.5596 21.33L57.2376 27.82C57.0974 28.5 57.0573 28.94 57.1174 29.15C57.1775 29.36 57.3578 29.46 57.6482 29.46C57.9387 29.46 58.169 29.37 58.3092 29.18C58.4494 28.99 58.5696 28.59 58.6998 27.97L60.0519 21.34L60.0419 21.33Z" fill="#002C5F"/>
<path d="M68.4141 14.2098H77.2677L76.5566 17.7198H73.0111L72.3301 21.0398H75.6452L74.9641 24.3798H71.649L70.8679 28.2298H74.7638L74.0527 31.7398H64.8486L68.4141 14.2098Z" fill="#002C5F"/>
<path d="M88.8961 17.37L83.5879 31.74H76.9277L77.2983 17.37H81.8553L81.1542 27.87C81.4246 27.1 81.9955 25.22 82.8768 22.23C83.3676 20.56 83.8584 18.94 84.3591 17.38H88.9061L88.8961 17.37Z" fill="#002C5F"/>
<path d="M99.6619 24.8098H93.0618L92.4308 27.9198C92.3006 28.5698 92.2706 28.9898 92.3407 29.1798C92.4108 29.3698 92.6011 29.4598 92.9116 29.4598C93.3022 29.4598 93.5826 29.3398 93.7629 29.0898C93.9432 28.8398 94.1034 28.3598 94.2536 27.6398L94.6342 25.7498H99.4616L99.2413 26.8098C99.061 27.6998 98.8607 28.3798 98.6303 28.8598C98.4 29.3398 97.9994 29.8498 97.4085 30.3898C96.8176 30.9298 96.1265 31.3398 95.3353 31.6098C94.5441 31.8798 93.5926 32.0198 92.4809 32.0198C91.3692 32.0198 90.4879 31.8898 89.7167 31.6198C88.9455 31.3498 88.3846 30.9798 88.0141 30.5198C87.6535 30.0498 87.4432 29.5398 87.3731 28.9798C87.313 28.4198 87.3831 27.6098 87.6035 26.5398L88.4548 22.3498C88.7152 21.0898 89.1158 20.0998 89.6566 19.3798C90.1974 18.6598 90.9586 18.0998 91.9401 17.7098C92.9216 17.3198 93.9932 17.1298 95.165 17.1298C96.5972 17.1298 97.729 17.3598 98.5602 17.8298C99.3915 18.2998 99.9223 18.9098 100.143 19.6798C100.363 20.4498 100.323 21.5298 100.043 22.9198L99.6519 24.8298L99.6619 24.8098ZM95.0248 22.4698L95.2351 21.4198C95.3854 20.6798 95.4354 20.1998 95.3854 19.9798C95.3353 19.7598 95.175 19.6598 94.8846 19.6598C94.5341 19.6598 94.2937 19.7498 94.1735 19.9398C94.0533 20.1198 93.9131 20.6198 93.7429 21.4298L93.5325 22.4798H95.0248V22.4698Z" fill="#002C5F"/>
<path d="M108.02 17.2599L107.429 19.1499C108.441 17.7999 109.663 17.0799 111.085 16.9999L110.053 22.0599C109.122 22.0599 108.411 22.1699 107.93 22.3899C107.449 22.6099 107.119 22.9099 106.939 23.2999C106.758 23.6799 106.528 24.5799 106.248 25.9699L105.096 31.6499H99.998L102.923 17.2799H108.02V17.2599Z" fill="#002C5F"/>
<path d="M6.60011 3.75H2.10322V0H0V9.6H2.10322V5.62H6.60011V9.6H8.70333V0H6.60011V3.75Z" fill="#002C5F"/>
<path d="M52.3604 0.55C51.9197 1 51.8997 1.66 51.8896 2.04V9.6H53.9929V6.53H58.4597V9.6H60.5729V0H54.0029C53.3819 0 52.791 0.1 52.3504 0.55H52.3604ZM54.5337 1.88H58.4697V4.67H54.0029V2.43C54.0029 2.32 53.9929 2.12 54.083 2C54.1832 1.88 54.3434 1.89 54.5437 1.88H54.5337Z" fill="#002C5F"/>
<path d="M37.457 0H30.877V9.6H32.9902V1.88H36.9462C37.1466 1.88 37.3068 1.88 37.3969 2C37.4971 2.12 37.4771 2.32 37.4771 2.43V9.61H39.5803V2.04C39.5703 1.66 39.5502 0.99 39.1096 0.55C38.6689 0.1 38.088 0.01 37.457 0Z" fill="#002C5F"/>
<path d="M26.9014 7.18C26.9014 7.29 26.9114 7.49 26.8212 7.61C26.7211 7.74 26.5608 7.73 26.3706 7.73H22.4245V0H20.3213V9.6H26.9014C27.5323 9.6 28.1132 9.5 28.5539 9.05C28.9946 8.6 29.0146 7.94 29.0246 7.56V0H26.9214V7.18H26.9014Z" fill="#002C5F"/>
<path d="M50.1467 2.04C50.1467 1.66 50.1166 0.99 49.676 0.55C49.2353 0.1 48.6544 0.01 48.0234 0H41.4434V9.6H48.0234C48.6444 9.6 49.2353 9.5 49.676 9.05C50.1166 8.6 50.1367 7.94 50.1467 7.56V2.04ZM48.0435 7.18C48.0335 7.29 48.0535 7.49 47.9633 7.61C47.8632 7.74 47.7029 7.73 47.5026 7.73H43.5466V1.88H47.5026C47.7029 1.88 47.8632 1.88 47.9633 2C48.0535 2.12 48.0335 2.32 48.0435 2.43V7.18Z" fill="#002C5F"/>
<path d="M14.5018 4.2L11.9479 0H9.4541L13.3801 6.05V9.6H15.6336V6.05L19.5696 0H17.0658L14.5018 4.2Z" fill="#002C5F"/>
<path d="M64.9397 0H62.6963V9.6H64.9397V0Z" fill="#002C5F"/>
</g>
<defs>
<clipPath id="clip0_973_6394">
<rect width="111" height="32" fill="white"/>
</clipPath>
</defs>
</svg>
