<svg width="133" height="26" viewBox="0 0 133 26" fill="none" xmlns="http://www.w3.org/2000/svg">
<path d="M12.9953 25.9953C20.1747 25.9953 25.9953 20.1747 25.9953 12.9953C25.9953 5.81591 20.1747 0 12.9953 0C5.81591 0 0 5.82061 0 13C0 20.1794 5.82061 26 12.9953 26" fill="#C60E41"/>
<path d="M12.478 7.29688V18.6889H16.103V17.6734H13.5171V7.29688H12.478Z" fill="white"/>
<path d="M8.84872 10.4043C9.70912 10.4043 10.4097 9.70375 10.4097 8.84335C10.4097 7.98295 9.71382 7.28711 8.84872 7.28711C7.98362 7.28711 7.29248 7.98295 7.29248 8.84335C7.29248 9.70375 7.98832 10.4043 8.84872 10.4043Z" fill="white"/>
<path d="M13.5167 2.12464C13.3803 2.11524 13.1217 2.11523 12.9948 2.11523C7.00022 2.11523 2.11523 7.00022 2.11523 12.9948C2.11523 15.9004 3.24833 18.6321 5.30294 20.6867C7.35755 22.7413 10.0939 23.8744 12.9948 23.8744C15.8957 23.8744 18.6368 22.746 20.6914 20.6867C22.7413 18.6321 23.8744 15.9004 23.8744 12.9948V12.4964H23.4371H16.1026V13.5073H22.8353V13.6577C22.4874 18.7872 18.2089 22.8541 12.9901 22.8541C10.3619 22.8541 7.88413 21.8245 6.02229 19.9626C4.15574 18.1008 3.13079 15.623 3.13079 12.9901C3.13079 10.3572 4.15574 7.87943 6.02229 6.01288C7.88413 4.15104 10.3619 3.12608 12.9901 3.12608C13.1076 3.12608 13.3897 3.12608 13.512 3.13549V2.11994L13.5167 2.12464Z" fill="white"/>
<path d="M35.5302 4.36816H31.6138V21.2987H43.6311V18.0029H35.5302V4.36816Z" fill="#636466"/>
<path d="M52.2354 14.8434H55.4231V17.8054C54.8354 18.0264 53.6929 18.2521 52.6021 18.2521C49.0806 18.2521 47.9052 16.4654 47.9052 12.8311C47.9052 9.19672 49.0242 7.32547 52.541 7.32547C54.4969 7.32547 55.6158 7.93668 56.5374 9.11209L58.9681 6.87882C57.4871 4.75368 54.8871 4.11426 52.4564 4.11426C46.979 4.11426 44.1016 7.10449 44.1016 12.8029C44.1016 18.5012 46.7016 21.5479 52.4281 21.5479C55.0564 21.5479 57.6281 20.8756 59.0245 19.8976V11.6839H52.2354V14.8434Z" fill="#636466"/>
<path d="M129.497 7.65929V4.11426H126.512V13.5551H129.272C129.455 12.6947 129.493 11.6698 129.493 10.8705V10.1417H132.365V7.65929H129.493H129.497Z" fill="#636466"/>
<path d="M75.8232 7.15621H74.5914V4.13306H71.7939V13.1649H74.2952C74.5021 12.5678 74.5914 11.43 74.5914 10.7577V9.52583H75.8232V13.7949H78.3762C78.6207 13.1226 78.6959 11.7638 78.6959 10.9034V4.11426H75.8232V7.15621Z" fill="#636466"/>
<path d="M72.6576 13.9121C68.2569 13.9121 66.9404 15.7363 66.9404 17.8145C66.9404 19.8926 68.2569 21.7168 72.6576 21.7168C77.0583 21.7168 78.4923 19.949 78.4923 17.8145C78.4923 15.6799 77.1336 13.9121 72.6576 13.9121ZM72.6764 19.5071C70.8804 19.5071 70.0858 18.8817 70.0858 17.8145C70.0858 16.8271 70.8757 16.1595 72.6764 16.1595C74.4771 16.1595 75.2858 16.8271 75.2858 17.8145C75.2858 18.8817 74.5148 19.5071 72.6764 19.5071Z" fill="#636466"/>
<path d="M88.5752 5.84925V3.86516H86.6052C85.6273 3.86516 84.1557 3.63948 83.2201 3.30566L82.811 5.4167C83.93 5.75051 85.2183 5.84454 86.3937 5.84454H88.5752V5.84925Z" fill="#636466"/>
<path d="M70.1899 13.3479L71.6286 11.0159C69.259 9.97218 68.361 8.60871 68.361 5.77363V4.41016H65.4319V5.79243C65.4319 8.99894 64.9429 10.4564 62.3711 11.693L63.4149 13.6865C64.9617 13.1458 66.4051 12.1349 67.1479 10.8091C67.7074 11.9469 69.0333 12.9718 70.1899 13.3479Z" fill="#636466"/>
<path d="M123.878 7.58369V4.43359H115.538V6.82202H120.799V7.86578C120.799 9.50665 119.026 11.0018 114.997 12.6614L116.003 14.7678C121.584 12.4546 123.874 10.6821 123.874 7.58369" fill="#636466"/>
<path d="M104.795 18.6841V14.7959H101.678V19.9536C101.678 21.0162 102.219 21.5192 103.281 21.5192H113.813V18.9992H105.106C104.861 18.9992 104.791 18.9427 104.791 18.6841" fill="#636466"/>
<path d="M106.446 10.1557H110.212V16.5922H112.972C113.198 15.6801 113.325 14.0909 113.325 13.0096V4.10938H110.207V7.6544H107.071V4.37266H98.679V6.76109H104.034V7.91769C104.034 9.52095 102.121 11.143 98.1665 12.7839L99.2103 14.8338C103.061 13.2117 105.407 11.9517 106.446 10.151" fill="#636466"/>
<path d="M86.7162 19.3193V18.9385H94.5256C94.8454 18.4542 94.9159 17.481 94.9159 16.5642V14.707H83.7495V16.5548H91.9538V17.1989H83.7495V20.4195C83.7495 21.1859 84.1021 21.5761 85.0566 21.5761H95.4566V19.5779H87.0312C86.7868 19.5779 86.7162 19.5403 86.7162 19.3146" fill="#636466"/>
<path d="M124.029 13.7568C119.943 13.7568 118.674 15.6234 118.674 17.7485C118.674 19.8737 119.943 21.7214 124.029 21.7214C128.115 21.7214 129.497 19.9301 129.497 17.7485C129.497 15.567 128.209 13.7568 124.029 13.7568ZM124.048 19.5586C122.52 19.5586 121.716 18.9239 121.716 17.7485C121.716 16.6483 122.52 15.9572 124.048 15.9572C125.576 15.9572 126.399 16.6483 126.399 17.7485C126.399 18.9239 125.613 19.5586 124.048 19.5586Z" fill="#636466"/>
<path d="M94.9222 4.11426H91.9555V11.3689C90.7236 11.9848 88.9652 12.1917 87.4936 12.1917V11.7262C89.0687 11.4159 89.7692 10.5931 89.7692 9.4224C89.7692 9.10268 89.6893 8.81118 89.5482 8.54319H91.2737V6.545H80.4224V8.54319H82.2983C82.1573 8.80648 82.0773 9.10268 82.0773 9.4224C82.0773 10.626 82.839 11.4582 84.4846 11.7497V12.1917H80.4224V14.1522H86.6144C88.669 14.1522 90.8694 13.9266 91.9508 13.3294V14.0206H94.9175V10.4803H97.5833V7.979H94.9175V4.11896L94.9222 4.11426ZM84.7479 9.31896C84.7479 8.75947 85.1287 8.48207 85.9045 8.48207C86.6802 8.48207 87.0234 8.75947 87.0234 9.31896C87.0234 9.87845 86.605 10.1794 85.8433 10.1794C85.0817 10.1794 84.7432 9.87845 84.7432 9.31896" fill="#636466"/>
</svg>
